<svg width="104" height="180" viewBox="0 0 104 180" fill="none" xmlns="http://www.w3.org/2000/svg">
    <path fill-rule="evenodd" clip-rule="evenodd" d="M52.5 179.5C80.1142 179.5 104 155.595 104 127C104 98.4054 59 0 52.5 0C46 0 0 97.1302 0 125.725C0 154.319 24.8858 179.5 52.5 179.5Z" fill="white"/>
    <path fill-rule="evenodd" clip-rule="evenodd" d="M52.5 179.5C80.1142 179.5 104 155.595 104 127C104 98.4054 59 0 52.5 0C46 0 0 97.1302 0 125.725C0 154.319 24.8858 179.5 52.5 179.5ZM52.5 174.5C79.0097 174.5 100.5 152.247 100.5 124.796C100.5 97.345 58.74 6.5 52.5 6.5C46.26 6.5 4.5 97.345 4.5 124.796C4.5 152.247 25.9903 174.5 52.5 174.5Z" fill="#3BEBEB"/>
    <path d="M10.1027 114.424C7.96594 114.817 6.23515 116.455 6.10925 118.624C5.98372 120.786 5.99995 122.94 5.99995 124.367C5.99995 150.674 26.5949 172 52 172C77.405 172 98 150.674 98 124.367C98 123.397 97.7765 122.012 97.4904 120.529C96.9584 117.77 94.227 115.942 91.4742 116.505C76.0501 119.658 66.8006 121.881 54.5 114.5C35.6957 103.217 28.2754 111.081 10.1027 114.424Z" fill="#3BEBEB"/>
</svg>
